<?xml version="1.0" standalone="no"?>
<!DOCTYPE svg PUBLIC "-//W3C//DTD SVG 20010904//EN"
 "http://www.w3.org/TR/2001/REC-SVG-20010904/DTD/svg10.dtd">
<svg version="1.0" xmlns="http://www.w3.org/2000/svg"
 width="700.000000pt" height="700.000000pt" viewBox="0 0 700.000000 700.000000"
 preserveAspectRatio="xMidYMid meet">
<metadata>
Created by potrace 1.14, written by Peter Selinger 2001-2017
</metadata>
<g transform="translate(0.000000,700.000000) scale(0.100000,-0.100000)"
fill="#000000" stroke="none">
<path d="M40 6940 c-4 -3 -6 -205 -4 -450 1 -245 5 -962 9 -1595 4 -632 8
-1391 10 -1685 2 -294 7 -1102 11 -1795 4 -693 7 -1285 8 -1315 l1 -55 820 0
820 0 -1 713 c0 635 2 712 16 713 8 0 315 1 682 1 l667 1 716 -717 716 -716
67 0 c108 0 2283 -1 2325 0 l37 0 -2 3452 -3 3453 -740 1 c-407 0 -745 -1
-751 -3 -8 -3 -11 -272 -10 -974 1 -533 -2 -969 -5 -969 -4 0 -443 437 -977
970 -533 534 -971 970 -973 970 -3 0 -4 -427 -4 -950 0 -522 -2 -950 -5 -950
-5 0 -90 87 -329 339 -29 31 -129 136 -223 233 -93 97 -185 194 -205 215 -20
21 -115 121 -212 222 -97 101 -189 198 -206 216 -16 17 -118 123 -225 235
-107 112 -208 217 -224 234 -16 17 -67 70 -114 119 l-85 87 -376 1 c-207 0
-567 1 -799 2 -233 1 -427 0 -432 -3z m1608 -195 c31 -33 141 -150 246 -259
105 -110 207 -216 226 -236 19 -21 114 -120 210 -220 96 -101 193 -202 215
-225 22 -23 119 -125 216 -226 97 -101 191 -200 209 -219 18 -19 114 -120 214
-224 99 -104 197 -206 216 -226 19 -20 74 -78 122 -128 l88 -91 2 960 3 961
971 -971 c534 -534 974 -971 977 -971 4 0 7 482 7 1070 l0 1070 615 0 c485 0
615 -3 616 -12 5 -66 2 -6608 -2 -6608 -9 0 -6617 6609 -6613 6613 2 2 319 3
705 2 l701 -1 56 -59z m1745 -3352 c1745 -1744 3182 -3182 3194 -3195 l22 -23
-1020 0 -1019 0 -718 718 -717 717 -778 0 -777 0 -1 -27 c0 -16 -1 -337 -1
-715 l-1 -688 -31 -1 c-151 -3 -1328 -1 -1331 3 -3 3 -8 340 -10 749 -10 1584
-15 2491 -20 3429 -3 536 -8 1262 -10 1614 l-4 639 25 -24 c14 -13 1453 -1451
3197 -3196z"/>
<path d="M4250 4016 c0 -3 297 -303 660 -668 l660 -663 0 668 0 667 -660 0
c-363 0 -660 -2 -660 -4z m1181 -153 c0 -30 0 -739 0 -798 l-1 -44 -424 427
c-234 234 -421 429 -416 432 4 3 195 5 424 5 l416 0 1 -22z"/>
<path d="M1569 3555 c0 -99 -2 -444 -3 -767 l-2 -588 20 -1 c105 -4 1556 -3
1556 1 0 5 -259 259 -525 515 -45 44 -226 220 -401 391 -176 171 -364 355
-419 408 -55 53 -128 125 -162 159 l-63 61 -1 -179z m291 -295 c43 -41 209
-203 370 -360 161 -157 355 -345 431 -419 77 -74 139 -137 139 -141 0 -3 -246
-5 -547 -5 l-548 0 0 537 -1 538 40 -38 c21 -20 74 -71 116 -112z"/>
</g>
</svg>
